<svg xmlns="http://www.w3.org/2000/svg" width="512" height="512" viewBox="0 0 512 512">
  <rect width="512" height="512" rx="80" fill="#0a0a1a"/>
  <path d="M256 96c-88.366 0-160 71.634-160 160s71.634 160 160 160 160-71.634 160-160S344.366 96 256 96zm0 24c75.111 0 136 60.889 136 136s-60.889 136-136 136-136-60.889-136-136S180.889 120 256 120z" fill="#4f46e5"/>
  <path d="M256 168c-48.601 0-88 39.399-88 88s39.399 88 88 88 88-39.399 88-88-39.399-88-88-88zm-12 120l-32-32 16-16 16 16 40-40 16 16-56 56z" fill="#4f46e5"/>
</svg>