<svg xmlns="http://www.w3.org/2000/svg" width="192" height="192" viewBox="0 0 192 192">
  <rect width="192" height="192" rx="32" fill="#0a0a1a"/>
  <path d="M96 40c-30.928 0-56 25.072-56 56s25.072 56 56 56 56-25.072 56-56-25.072-56-56-56zm0 8c26.51 0 48 21.49 48 48s-21.49 48-48 48-48-21.49-48-48 21.49-48 48-48z" fill="#4f46e5"/>
  <path d="M96 64c-17.673 0-32 14.327-32 32s14.327 32 32 32 32-14.327 32-32-14.327-32-32-32zm-4 44l-12-12 5.656-5.656L92 96.688l14.344-14.344L112 88l-20 20z" fill="#4f46e5"/>
</svg>